<?xml version="1.0" encoding="utf-8"?>
<!-- Generator: Adobe Illustrator 22.1.0, SVG Export Plug-In . SVG Version: 6.00 Build 0)  -->
<svg version="1.1" id="Layer_1" xmlns="http://www.w3.org/2000/svg" xmlns:xlink="http://www.w3.org/1999/xlink" x="0px" y="0px"
	 width ="187.4px" height ="55.5px" viewBox="0 0 187.4 55.5" style="enable-background:new 0 0 187.4 55.5;" xml:space="preserve">
<style type="text/css">
	.st0{fill:#E52713;}
</style>
<g>
	<path class="st0" d="M17.8,0c3.8,0,5,2.7,6,5.4c0.4,1.1,10.2,28,10.5,28.8c0.1,0.2,0,0.6-0.3,0.7c-0.3,0.1-5.4,2.1-5.7,2.2
		c-0.3,0.1-0.6-0.1-0.7-0.3c-0.1-0.3-2.2-6.1-2.5-6.8c-0.7,0-13.8,0-14.5,0c-0.2,0.7-2.4,6.5-2.5,6.8c-0.1,0.3-0.4,0.4-0.7,0.3
		C7.1,37,2,35.1,1.7,34.9c-0.3-0.1-0.4-0.4-0.3-0.7c0.4-1,10-27.4,10.5-28.8C12.8,2.7,14,0,17.8,0z M0.6,48.1
		c-0.3,0-0.6,0.3-0.6,0.6v6.3c0,0.3,0.2,0.6,0.6,0.6h34.5c0.3,0,0.5-0.3,0.5-0.6v-6.3c0-0.3-0.2-0.6-0.5-0.6H0.6 M17.8,8.8
		l-4.9,14.8h9.9L17.8,8.8L17.8,8.8z M146.1,30.4c0,1.7-0.9,2.8-2.6,2.8c-0.7,0-1.2,0-2.1-0.2v-5.1c0.4-0.1,1.2-0.2,2.1-0.2
		C145.2,27.8,146.1,28.6,146.1,30.4z M149.6,30.2c0-3.1-1.8-5.2-5.6-5.2c-0.9,0-1.6,0.1-2.6,0.3l0-4.5c0.6-0.1,1.7-0.2,2.9-0.2
		c1.1,0,2.5,0.1,3.8,0.2l0.1-2.6c-1.4-0.3-3.5-0.5-5.1-0.5c-1.6,0-4,0.4-5.2,0.7l0,16.5c1.8,0.7,3.6,1,5.4,1
		C147.5,35.9,149.6,33.7,149.6,30.2z M110,29.3c0,2.3-0.9,3.8-2.4,3.8c-0.6,0-1,0-1.7-0.3v-6.9c0.8-0.4,1.2-0.4,1.8-0.4
		C109.2,25.5,110,26.8,110,29.3 M98.5,29.4c0-2.5,0.8-3.8,2.3-3.8c0.6,0,1.1,0,1.8,0.4v6.9c-0.7,0.2-1,0.3-1.7,0.3
		C99.2,33.1,98.5,31.7,98.5,29.4 M105.9,39.7v-4.5c0.4,0.2,1.2,0.6,2.6,0.6c2.8,0,4.8-2.3,4.8-6.5c0-4.5-2-6.5-5.4-6.5
		c-0.9,0-1.4,0.1-2.1,0.4v-5.4h-3.3v5.4c-0.7-0.3-1.2-0.4-2.1-0.4c-3.3,0-5.4,2-5.4,6.6c0,4.2,1.8,6.5,4.8,6.5
		c1.4,0,2.2-0.4,2.7-0.6v4.5H105.9 M81,35.6v-12c-1.8-0.5-3.2-0.8-5-0.8c-1.8,0-3.2,0.2-5,0.8v6.2c0,1.7,0,2.2-0.2,2.7
		c-0.2,0.5-0.4,1-1.1,1.5l0.9,1.9c2.6-0.7,3.6-1.9,3.6-5.5v-4.5c0.9-0.1,1-0.2,1.7-0.2c0.7,0,0.8,0,1.7,0.2v9.8H81z M121.5,33
		c-0.7,0.2-1.2,0.3-1.8,0.3c-1.2,0-1.8-0.5-1.8-1.7c0-1.3,0.8-1.7,2.5-1.7c0.4,0,0.8,0.1,1,0.1v0.9C121.3,31.9,121.4,32.5,121.5,33z
		 M125.7,34.4c-0.9-1.3-1.1-2.1-1.1-3.8v-3.4c0-1.8-0.2-2.5-0.7-3.2c-0.7-0.9-1.8-1.3-3.8-1.3c-1.4,0-2.9,0.2-4.2,0.5l0.5,2.4
		c0.9-0.1,1.9-0.2,2.6-0.2c2.2,0,2.4,0.3,2.4,1.9V28c-0.5-0.1-1-0.2-1.7-0.2c-3.3,0-5,1.6-5,4.2c0,2.5,1.8,3.8,4.1,3.8
		c0.8,0,1.7-0.2,2.4-0.4c0.4-0.2,0.6-0.3,1.1-0.6c0.3,0.5,1,1,1.2,1.1L125.7,34.4z M157.7,33c-0.7,0.2-1.2,0.3-1.8,0.3
		c-1.2,0-1.8-0.5-1.8-1.7c0-1.3,0.8-1.7,2.5-1.7c0.4,0,0.8,0.1,1,0.1v0.9C157.6,31.9,157.6,32.5,157.7,33z M161.9,34.4
		c-0.9-1.3-1.1-2.1-1.1-3.8v-3.4c0-1.8-0.2-2.5-0.7-3.2c-0.7-0.9-1.8-1.3-3.8-1.3c-1.4,0-2.9,0.2-4.2,0.5l0.5,2.4
		c0.9-0.1,1.9-0.2,2.6-0.2c2.2,0,2.4,0.3,2.4,1.9V28c-0.5-0.1-1-0.2-1.7-0.2c-3.3,0-5,1.6-5,4.2c0,2.5,1.8,3.8,4.1,3.8
		c0.8,0,1.7-0.2,2.4-0.4c0.4-0.2,0.6-0.3,1.1-0.6c0.3,0.5,1,1,1.3,1.1L161.9,34.4z M90.4,31.3c0,1.2-0.4,2.1-2,2.1
		c-0.5,0-0.7,0-1.4-0.2v-3.6c0.9-0.2,0.9-0.2,1.4-0.2C89.9,29.4,90.4,30.1,90.4,31.3z M83.7,23l0,12c1.6,0.7,3.3,1,4.8,1
		c3.5,0,5.4-1.8,5.4-4.8c0-2.7-1.7-4.4-4.7-4.4c-0.8,0-1.2,0.1-2.1,0.3V23H83.7z M173.9,35.6V23.1h-3.3v4.7h-3.7v-4.7h-3.3v12.5h3.3
		v-5.1h3.7v5.1H173.9z M187.4,35.6c0,0-1.8-3.8-2.2-4.7c-0.5-1-0.9-1.7-2-1.9V29c0.7-0.1,1.2-0.5,1.8-1.8c0.6-1.2,0.7-1.5,1.1-1.8
		c0.3-0.3,0.8-0.2,0.8-0.2l0.2-2.3c-0.5-0.1-1-0.1-1.5,0c-0.9,0.1-1.4,0.3-1.8,0.8c-0.3,0.3-0.6,0.8-0.9,1.4
		c-0.3,0.6-0.6,1.1-0.9,1.8c-0.3,0.7-0.5,1-1.3,1h-0.6v-4.7h-3.3v12.5h3.3v-5.1l0.4,0c0.9,0,1.1,0.2,1.6,1.2
		c0.6,1.2,1.7,3.9,1.7,3.9H187.4z M65,35.6h3.8l-5.7-17.5c-0.6-0.2-1.4-0.3-2.1-0.3c-0.9,0-1.2,0.1-1.9,0.3L53,35.6h3.6
		c0,0,0.5-1.5,1.1-3.4H64C64.5,34.1,65,35.6,65,35.6z M58.6,29.2c0,0,1-3.5,1.2-4c0.4-1.4,1.1-3.7,1.1-3.7H61c0,0,0.6,2.3,1,3.6
		c0.1,0.5,1.1,4.1,1.1,4.1H58.6z M131.3,27.2c-1.2,0-2.1,0.9-2.1,2.1c0,1.2,0.9,2.1,2.1,2.1c1.2,0,2.1-0.9,2.1-2.1
		C133.3,28.2,132.4,27.2,131.3,27.2z"/>
</g>
</svg>
