<?xml version="1.0" encoding="utf-8"?>
<!-- Generator: Adobe Illustrator 22.1.0, SVG Export Plug-In . SVG Version: 6.00 Build 0)  -->
<svg version="1.1" id="_x2014_ÎÓÈ_x5F_1" xmlns="http://www.w3.org/2000/svg" xmlns:xlink="http://www.w3.org/1999/xlink"
	 x="0px" y="0px" width="60px" height="60px" viewBox="0 0 7.5 7.5" style="enable-background:new 0 0 7.5 7.5;" xml:space="preserve">
<style type="text/css">
	.st0{fill:#53C4EF;}
	.st1{fill:#FFFFFF;}
</style>
<g>
	<g>
		<g>
			<rect x="3.7" y="0.4" class="st0" width="0.1" height="0.7"/>
		</g>
		<g>
			<polygon class="st0" points="3.6,1.1 3.5,0.4 3.6,0.4 3.6,1.1 			"/>
		</g>
		<g>
			<polygon class="st0" points="3.4,1.1 3.3,0.4 3.4,0.4 3.5,1.1 			"/>
		</g>
		<g>
			<polygon class="st0" points="3.2,1.1 3.1,0.5 3.2,0.5 3.3,1.1 			"/>
		</g>
		<g>
			<polygon class="st0" points="3.1,1.2 2.9,0.5 3,0.5 3.1,1.1 			"/>
		</g>
		<g>
			<polygon class="st0" points="2.9,1.2 2.7,0.6 2.8,0.6 3,1.2 			"/>
		</g>
		<g>
			<polygon class="st0" points="2.7,1.3 2.5,0.7 2.6,0.6 2.8,1.2 			"/>
		</g>
		<g>
			<polygon class="st0" points="2.6,1.3 2.3,0.8 2.4,0.7 2.7,1.3 			"/>
		</g>
		<g>
			<polygon class="st0" points="2.4,1.4 2.1,0.9 2.2,0.8 2.5,1.4 			"/>
		</g>
		<g>
			<polygon class="st0" points="2.3,1.5 1.9,1 2,0.9 2.4,1.5 			"/>
		</g>
		<g>
			<polygon class="st0" points="2.1,1.6 1.8,1.1 1.8,1 2.2,1.6 			"/>
		</g>
		<g>
			<rect x="1.8" y="1.1" transform="matrix(0.7709 -0.6369 0.6369 0.7709 -0.4931 1.5021)" class="st0" width="0.1" height="0.7"/>
		</g>
		<g>
			<polygon class="st0" points="1.9,1.8 1.4,1.4 1.5,1.3 2,1.8 			"/>
		</g>
		<g>
			<polygon class="st0" points="1.8,2 1.3,1.5 1.4,1.4 1.8,1.9 			"/>
		</g>
		<g>
			<polygon class="st0" points="1.7,2.1 1.2,1.7 1.2,1.6 1.7,2 			"/>
		</g>
		<g>
			<polygon class="st0" points="1.6,2.2 1,1.8 1.1,1.8 1.6,2.1 			"/>
		</g>
		<g>
			<polygon class="st0" points="1.5,2.4 0.9,2 1,1.9 1.5,2.3 			"/>
		</g>
		<g>
			<polygon class="st0" points="1.4,2.5 0.8,2.2 0.9,2.1 1.4,2.4 			"/>
		</g>
		<g>
			<polygon class="st0" points="1.3,2.7 0.7,2.4 0.8,2.3 1.3,2.6 			"/>
		</g>
		<g>
			<polygon class="st0" points="1.2,2.8 0.6,2.6 0.7,2.5 1.3,2.7 			"/>
		</g>
		<g>
			<rect x="0.8" y="2.5" transform="matrix(0.31 -0.9507 0.9507 0.31 -2.0779 2.8018)" class="st0" width="0.1" height="0.7"/>
		</g>
		<g>
			<rect x="0.8" y="2.7" transform="matrix(0.2473 -0.9689 0.9689 0.2473 -2.2902 3.0832)" class="st0" width="0.1" height="0.7"/>
		</g>
		<g>
			<polygon class="st0" points="1.1,3.3 0.5,3.2 0.5,3.1 1.1,3.2 			"/>
		</g>
		<g>
			<polygon class="st0" points="1.1,3.5 0.4,3.4 0.5,3.3 1.1,3.4 			"/>
		</g>
		<g>
			
				<rect x="0.7" y="3.3" transform="matrix(5.976403e-02 -0.9982 0.9982 5.976403e-02 -2.8674 4.1135)" class="st0" width="0.1" height="0.7"/>
		</g>
		<g>
			<rect x="0.4" y="3.7" class="st0" width="0.7" height="0.1"/>
		</g>
		<g>
			<polygon class="st0" points="0.4,4 0.4,3.9 1.1,3.9 1.1,4 			"/>
		</g>
		<g>
			<polygon class="st0" points="0.5,4.2 0.4,4.1 1.1,4.1 1.1,4.2 			"/>
		</g>
		<g>
			<polygon class="st0" points="0.5,4.4 0.5,4.4 1.1,4.2 1.1,4.3 			"/>
		</g>
		<g>
			<polygon class="st0" points="0.5,4.6 0.5,4.6 1.1,4.4 1.2,4.5 			"/>
		</g>
		<g>
			<rect x="0.6" y="4.7" transform="matrix(0.9503 -0.3112 0.3112 0.9503 -1.4196 0.511)" class="st0" width="0.7" height="0.1"/>
		</g>
		<g>
			<rect x="0.6" y="4.8" transform="matrix(0.9304 -0.3666 0.3666 0.9304 -1.7232 0.6904)" class="st0" width="0.7" height="0.1"/>
		</g>
		<g>
			<polygon class="st0" points="0.8,5.2 0.7,5.2 1.3,4.9 1.3,5 			"/>
		</g>
		<g>
			<polygon class="st0" points="0.9,5.4 0.8,5.3 1.4,5 1.4,5.1 			"/>
		</g>
		<g>
			<polygon class="st0" points="1,5.6 0.9,5.5 1.5,5.2 1.5,5.3 			"/>
		</g>
		<g>
			<polygon class="st0" points="1.1,5.8 1,5.7 1.6,5.3 1.6,5.4 			"/>
		</g>
		<g>
			<polygon class="st0" points="1.2,5.9 1.2,5.9 1.7,5.5 1.7,5.5 			"/>
		</g>
		<g>
			<polygon class="st0" points="1.4,6.1 1.3,6 1.8,5.6 1.8,5.6 			"/>
		</g>
		<g>
			<rect x="1.4" y="5.9" transform="matrix(0.6853 -0.7283 0.7283 0.6853 -3.8167 3.117)" class="st0" width="0.7" height="0.1"/>
		</g>
		<g>
			<polygon class="st0" points="1.7,6.4 1.6,6.3 2,5.8 2.1,5.9 			"/>
		</g>
		<g>
			<polygon class="st0" points="1.8,6.5 1.8,6.5 2.1,5.9 2.2,6 			"/>
		</g>
		<g>
			<polygon class="st0" points="2,6.6 1.9,6.6 2.3,6 2.4,6.1 			"/>
		</g>
		<g>
			<polygon class="st0" points="2.2,6.7 2.1,6.7 2.4,6.1 2.5,6.2 			"/>
		</g>
		<g>
			<polygon class="st0" points="2.4,6.8 2.3,6.8 2.6,6.2 2.7,6.2 			"/>
		</g>
		<g>
			<polygon class="st0" points="2.6,6.9 2.5,6.9 2.7,6.3 2.8,6.3 			"/>
		</g>
		<g>
			<polygon class="st0" points="2.8,7 2.7,6.9 2.9,6.3 3,6.4 			"/>
		</g>
		<g>
			<polygon class="st0" points="3,7 2.9,7 3.1,6.4 3.1,6.4 			"/>
		</g>
		<g>
			<polygon class="st0" points="3.2,7.1 3.1,7.1 3.2,6.4 3.3,6.4 			"/>
		</g>
		<g>
			<polygon class="st0" points="3.4,7.1 3.3,7.1 3.4,6.4 3.5,6.5 			"/>
		</g>
		<g>
			<polygon class="st0" points="3.6,7.1 3.5,7.1 3.6,6.5 3.6,6.5 			"/>
		</g>
		<g>
			<rect x="3.7" y="6.5" class="st0" width="0.1" height="0.7"/>
		</g>
		<g>
			<polygon class="st0" points="3.9,7.1 3.9,6.5 4,6.5 4,7.1 			"/>
		</g>
		<g>
			<polygon class="st0" points="4.1,7.1 4.1,6.5 4.2,6.4 4.2,7.1 			"/>
		</g>
		<g>
			<polygon class="st0" points="4.4,7.1 4.2,6.4 4.3,6.4 4.4,7.1 			"/>
		</g>
		<g>
			<polygon class="st0" points="4.6,7 4.4,6.4 4.5,6.4 4.6,7 			"/>
		</g>
		<g>
			<polygon class="st0" points="4.8,7 4.6,6.4 4.6,6.3 4.8,6.9 			"/>
		</g>
		<g>
			<polygon class="st0" points="5,6.9 4.7,6.3 4.8,6.3 5,6.9 			"/>
		</g>
		<g>
			<polygon class="st0" points="5.2,6.8 4.9,6.2 5,6.2 5.2,6.8 			"/>
		</g>
		<g>
			<polygon class="st0" points="5.3,6.7 5,6.2 5.1,6.1 5.4,6.7 			"/>
		</g>
		<g>
			<polygon class="st0" points="5.5,6.6 5.2,6.1 5.3,6 5.6,6.6 			"/>
		</g>
		<g>
			<polygon class="st0" points="5.7,6.5 5.3,6 5.4,5.9 5.8,6.5 			"/>
		</g>
		<g>
			<polygon class="st0" points="5.9,6.4 5.5,5.9 5.5,5.8 5.9,6.3 			"/>
		</g>
		<g>
			<polygon class="st0" points="6,6.2 5.6,5.8 5.7,5.7 6.1,6.2 			"/>
		</g>
		<g>
			<polygon class="st0" points="6.2,6.1 5.7,5.6 5.8,5.6 6.2,6 			"/>
		</g>
		<g>
			<polygon class="st0" points="6.3,5.9 5.8,5.5 5.9,5.5 6.4,5.9 			"/>
		</g>
		<g>
			<polygon class="st0" points="6.5,5.8 5.9,5.4 6,5.3 6.5,5.7 			"/>
		</g>
		<g>
			<polygon class="st0" points="6.6,5.6 6,5.3 6.1,5.2 6.6,5.5 			"/>
		</g>
		<g>
			<polygon class="st0" points="6.7,5.4 6.1,5.1 6.2,5 6.7,5.3 			"/>
		</g>
		<g>
			<polygon class="st0" points="6.8,5.2 6.2,5 6.2,4.9 6.8,5.2 			"/>
		</g>
		<g>
			<rect x="6.5" y="4.6" transform="matrix(0.3669 -0.9303 0.9303 0.3669 -0.3742 9.2167)" class="st0" width="0.1" height="0.7"/>
		</g>
		<g>
			<polygon class="st0" points="6.9,4.8 6.3,4.6 6.4,4.6 7,4.8 			"/>
		</g>
		<g>
			<rect x="6.7" y="4.2" transform="matrix(0.2501 -0.9682 0.9682 0.2501 0.6477 9.8797)" class="st0" width="0.1" height="0.7"/>
		</g>
		<g>
			<rect x="6.7" y="4" transform="matrix(0.1874 -0.9823 0.9823 0.1874 1.2194 10.1478)" class="st0" width="0.1" height="0.7"/>
		</g>
		<g>
			<rect x="6.7" y="3.8" transform="matrix(0.1272 -0.9919 0.9919 0.1272 1.7967 10.3387)" class="st0" width="0.1" height="0.7"/>
		</g>
		<g>
			
				<rect x="6.7" y="3.6" transform="matrix(6.143168e-02 -0.9981 0.9981 6.143168e-02 2.422 10.4945)" class="st0" width="0.1" height="0.7"/>
		</g>
		<g>
			<rect x="6.5" y="3.7" class="st0" width="0.7" height="0.1"/>
		</g>
		<g>
			<polygon class="st0" points="6.5,3.6 6.5,3.6 7.1,3.5 7.1,3.6 			"/>
		</g>
		<g>
			<polygon class="st0" points="6.5,3.5 6.4,3.4 7.1,3.3 7.1,3.4 			"/>
		</g>
		<g>
			<polygon class="st0" points="6.4,3.3 6.4,3.2 7.1,3.1 7.1,3.2 			"/>
		</g>
		<g>
			<rect x="6.4" y="3" transform="matrix(0.9674 -0.2534 0.2534 0.9674 -0.5455 1.7965)" class="st0" width="0.7" height="0.1"/>
		</g>
		<g>
			<polygon class="st0" points="6.4,3 6.3,2.9 6.9,2.7 7,2.8 			"/>
		</g>
		<g>
			<rect x="6.3" y="2.6" transform="matrix(0.9325 -0.3612 0.3612 0.9325 -0.5145 2.5576)" class="st0" width="0.7" height="0.1"/>
		</g>
		<g>
			<polygon class="st0" points="6.2,2.7 6.2,2.6 6.8,2.3 6.8,2.4 			"/>
		</g>
		<g>
			<rect x="6.1" y="2.3" transform="matrix(0.8709 -0.4915 0.4915 0.8709 -0.3066 3.4549)" class="st0" width="0.7" height="0.1"/>
		</g>
		<g>
			<polygon class="st0" points="6.1,2.4 6,2.3 6.6,1.9 6.6,2 			"/>
		</g>
		<g>
			<polygon class="st0" points="6,2.2 5.9,2.1 6.5,1.8 6.5,1.8 			"/>
		</g>
		<g>
			<polygon class="st0" points="5.9,2.1 5.8,2 6.3,1.6 6.4,1.7 			"/>
		</g>
		<g>
			<polygon class="st0" points="5.8,2 5.7,1.9 6.2,1.4 6.2,1.5 			"/>
		</g>
		<g>
			<polygon class="st0" points="5.7,1.8 5.6,1.8 6,1.3 6.1,1.4 			"/>
		</g>
		<g>
			<polygon class="st0" points="5.5,1.7 5.5,1.7 5.9,1.2 5.9,1.2 			"/>
		</g>
		<g>
			<rect x="5.2" y="1.3" transform="matrix(0.5869 -0.8097 0.8097 0.5869 1.2234 5.0384)" class="st0" width="0.7" height="0.1"/>
		</g>
		<g>
			<polygon class="st0" points="5.3,1.5 5.2,1.5 5.5,0.9 5.6,1 			"/>
		</g>
		<g>
			<polygon class="st0" points="5.1,1.4 5,1.4 5.3,0.8 5.4,0.9 			"/>
		</g>
		<g>
			<polygon class="st0" points="5,1.3 4.9,1.3 5.2,0.7 5.2,0.8 			"/>
		</g>
		<g>
			<polygon class="st0" points="4.8,1.3 4.7,1.2 5,0.6 5,0.7 			"/>
		</g>
		<g>
			<polygon class="st0" points="4.6,1.2 4.6,1.2 4.8,0.6 4.8,0.6 			"/>
		</g>
		<g>
			<polygon class="st0" points="4.5,1.2 4.4,1.1 4.6,0.5 4.6,0.5 			"/>
		</g>
		<g>
			<polygon class="st0" points="4.3,1.1 4.2,1.1 4.4,0.5 4.4,0.5 			"/>
		</g>
		<g>
			<polygon class="st0" points="4.2,1.1 4.1,1.1 4.1,0.4 4.2,0.4 			"/>
		</g>
		<g>
			<polygon class="st0" points="4,1.1 3.9,1.1 3.9,0.4 4,0.4 			"/>
		</g>
	</g>
	<g>
		<g>
			<g>
				<path class="st1" d="M3.8,7.5C1.7,7.5,0,5.8,0,3.8C0,1.7,1.7,0,3.8,0c2.1,0,3.8,1.7,3.8,3.8C7.5,5.8,5.8,7.5,3.8,7.5z M3.8,0.1
					c-2,0-3.7,1.7-3.7,3.7c0,2,1.7,3.7,3.7,3.7c2,0,3.7-1.7,3.7-3.7C7.5,1.7,5.8,0.1,3.8,0.1z"/>
			</g>
		</g>
	</g>
</g>
</svg>
