<svg width="61px" height="66px" viewBox="0 0 61 66" version="1.1" xmlns="http://www.w3.org/2000/svg" xmlns:xlink="http://www.w3.org/1999/xlink">
    <g id="Page-1" stroke="none" stroke-width="1" fill="none" fill-rule="evenodd">
        <g id="circle-js" transform="translate(-5.000000, 0.000000)" stroke="#53C4EF">
            <g id="Group">
                <g id="Group-2" transform="translate(5.000000, 0.000000)">
                    <path d="M27.6373626,60.1978022 C12.4065934,60.1978022 0.0769230769,47.8681319 0.0769230769,32.6373626 C0.0769230769,17.4065934 12.4065934,5.07692308 27.6373626,5.07692308 C42.8681319,5.07692308 55.1978022,17.4065934 55.1978022,32.6373626 C55.1978022,47.8681319 42.8681319,60.1978022 27.6373626,60.1978022 Z M27.6373626,5.8021978 C13.1318681,5.8021978 0.802197802,18.1318681 0.802197802,32.6373626 C0.802197802,47.1428571 13.1318681,59.4725275 27.6373626,59.4725275 C42.1428571,59.4725275 54.4725275,47.1428571 54.4725275,32.6373626 C54.4725275,18.1318681 42.8681319,5.8021978 27.6373626,5.8021978 Z" id="Shape" fill-rule="nonzero"></path>
                    <rect id="Rectangle" x="27.6373626" y="0" width="1" height="5.8021978"></rect>
                    <rect id="Rectangle" x="27.6373626" y="60.1978022" width="1" height="5.8021978"></rect>
                    <rect id="Rectangle" x="55.1978022" y="32.6373626" width="5.8021978" height="1"></rect>
                </g>
            </g>
        </g>
    </g>
</svg>