<?xml version="1.0" encoding="utf-8"?>
<!-- Generator: Adobe Illustrator 22.1.0, SVG Export Plug-In . SVG Version: 6.00 Build 0)  -->
<svg version="1.1" id="Layer_1" xmlns="http://www.w3.org/2000/svg" xmlns:xlink="http://www.w3.org/1999/xlink" x="0px" y="0px"
	width="70.8px" height="55.1px" viewBox="0 0 70.8 55.1" style="enable-background:new 0 0 70.8 55.1;" xml:space="preserve">
<style type="text/css">
	.st0{fill:#E85E14;}
	.st1{fill:#DF1612;}
	.st2{fill:#F59E00;}
	.st3{fill:#0A0A0A;}
</style>
<g>
	<rect x="25.8" y="4.7" class="st0" width="19.1" height="34.4"/>
	<path class="st1" d="M27,21.9c0-7,3.3-13.2,8.4-17.2C31.7,1.7,27,0,21.9,0C9.8,0,0,9.8,0,21.9s9.8,21.9,21.9,21.9
		c5.1,0,9.8-1.7,13.5-4.7C30.3,35.1,27,28.9,27,21.9"/>
	<path class="st0" d="M68.7,33.5v-0.7H69v-0.1h-0.7v0.1h0.3v0.7H68.7z M70.1,33.5v-0.8h-0.2l-0.3,0.6l-0.3-0.6h-0.2v0.8h0.2v-0.6
		l0.2,0.6h0.2l0.2-0.6v0.6H70.1z"/>
	<path class="st2" d="M70.8,21.9c0,12.1-9.8,21.9-21.9,21.9c-5.1,0-9.8-1.7-13.5-4.7c5.1-4,8.4-10.2,8.4-17.2S40.5,8.7,35.4,4.7
		C39.1,1.7,43.8,0,48.9,0C61,0,70.8,9.8,70.8,21.9"/>
	<path class="st3" d="M12.9,54.8v-3.6c0-1.4-0.9-2.3-2.3-2.3c-0.7,0-1.5,0.2-2,1c-0.4-0.6-1-1-1.9-1c-0.6,0-1.2,0.2-1.7,0.9V49H3.7
		v5.8h1.3v-3.2c0-1,0.6-1.5,1.4-1.5c0.8,0,1.3,0.5,1.3,1.5v3.2h1.3v-3.2c0-1,0.6-1.5,1.4-1.5c0.9,0,1.3,0.5,1.3,1.5v3.2H12.9z
		 M31.8,49h-2.1v-1.8h-1.3V49h-1.2v1.2h1.2v2.7c0,1.3,0.5,2.2,2,2.2c0.5,0,1.2-0.2,1.6-0.4l-0.4-1.1c-0.4,0.2-0.8,0.3-1.1,0.3
		c-0.6,0-0.8-0.4-0.8-1v-2.6h2.1V49z M42.5,48.8c-0.7,0-1.2,0.3-1.5,0.9V49h-1.3v5.8H41v-3.3c0-1,0.4-1.5,1.2-1.5
		c0.3,0,0.5,0,0.8,0.1l0.4-1.2C43.2,48.9,42.8,48.8,42.5,48.8 M26.2,49.4c-0.6-0.4-1.4-0.6-2.4-0.6c-1.5,0-2.4,0.7-2.4,1.9
		c0,0.9,0.7,1.5,2,1.7l0.6,0.1c0.7,0.1,1,0.3,1,0.6c0,0.5-0.5,0.7-1.3,0.7c-0.9,0-1.5-0.3-1.9-0.6l-0.6,1c0.7,0.5,1.6,0.8,2.5,0.8
		c1.7,0,2.7-0.8,2.7-1.9c0-1-0.8-1.6-2-1.7l-0.6-0.1c-0.5-0.1-1-0.2-1-0.6c0-0.4,0.4-0.7,1.1-0.7c0.7,0,1.5,0.3,1.8,0.5L26.2,49.4z
		 M60.1,48.8c-0.7,0-1.2,0.3-1.5,0.9V49h-1.3v5.8h1.3v-3.3c0-1,0.4-1.5,1.2-1.5c0.3,0,0.5,0,0.8,0.1L61,49
		C60.7,48.9,60.4,48.8,60.1,48.8 M43.8,51.9c0,1.8,1.2,3.1,3.1,3.1c0.9,0,1.5-0.2,2.1-0.7l-0.6-1c-0.5,0.3-1,0.5-1.5,0.5
		c-1,0-1.7-0.7-1.7-1.9c0-1.1,0.7-1.8,1.7-1.9c0.5,0,1,0.2,1.5,0.5l0.6-1c-0.6-0.5-1.2-0.7-2.1-0.7C45.1,48.8,43.8,50.1,43.8,51.9
		 M55.7,51.9V49h-1.3v0.7c-0.4-0.5-1-0.9-1.8-0.9c-1.6,0-2.9,1.3-2.9,3.1s1.3,3.1,2.9,3.1c0.8,0,1.4-0.3,1.8-0.9v0.7h1.3V51.9z
		 M51,51.9c0-1,0.7-1.9,1.8-1.9c1,0,1.8,0.8,1.8,1.9c0,1.1-0.7,1.9-1.8,1.9C51.6,53.7,51,52.9,51,51.9 M35.7,48.8
		c-1.7,0-2.9,1.2-2.9,3.1c0,1.8,1.2,3.1,3,3.1c0.9,0,1.7-0.2,2.4-0.8l-0.6-0.9c-0.5,0.4-1.1,0.6-1.7,0.6c-0.8,0-1.6-0.4-1.7-1.4h4.3
		c0-0.2,0-0.3,0-0.5C38.5,50.1,37.3,48.8,35.7,48.8 M35.7,49.9c0.8,0,1.3,0.5,1.5,1.4h-3C34.3,50.5,34.8,49.9,35.7,49.9 M67.4,51.9
		v-5.2h-1.3v3c-0.4-0.5-1-0.9-1.8-0.9c-1.6,0-2.9,1.3-2.9,3.1s1.3,3.1,2.9,3.1c0.8,0,1.4-0.3,1.8-0.9v0.7h1.3V51.9z M62.7,51.9
		c0-1,0.7-1.9,1.8-1.9c1,0,1.8,0.8,1.8,1.9c0,1.1-0.7,1.9-1.8,1.9C63.4,53.7,62.7,52.9,62.7,51.9 M20,51.9V49h-1.3v0.7
		c-0.4-0.5-1-0.9-1.8-0.9c-1.6,0-2.9,1.3-2.9,3.1s1.3,3.1,2.9,3.1c0.8,0,1.4-0.3,1.8-0.9v0.7H20V51.9z M15.3,51.9
		c0-1,0.7-1.9,1.8-1.9c1,0,1.7,0.8,1.7,1.9c0,1.1-0.7,1.9-1.7,1.9C16,53.7,15.3,52.9,15.3,51.9 M69.5,53.9c0.1,0,0.2,0,0.2,0
		c0.1,0,0.1,0.1,0.2,0.1c0.1,0.1,0.1,0.1,0.1,0.2c0,0.1,0,0.1,0,0.2c0,0.1,0,0.2,0,0.2c0,0.1-0.1,0.1-0.1,0.2
		C69.9,55,69.8,55,69.7,55c-0.1,0-0.1,0-0.2,0c-0.1,0-0.2,0-0.2,0c-0.1,0-0.1-0.1-0.2-0.1C69,54.9,69,54.8,69,54.7
		c0-0.1,0-0.1,0-0.2c0-0.1,0-0.2,0-0.2c0-0.1,0.1-0.1,0.1-0.2c0.1-0.1,0.1-0.1,0.2-0.1C69.3,53.9,69.4,53.9,69.5,53.9 M69.5,55
		c0.1,0,0.1,0,0.2,0c0.1,0,0.1-0.1,0.1-0.1c0,0,0.1-0.1,0.1-0.1c0-0.1,0-0.1,0-0.2c0-0.1,0-0.1,0-0.2c0-0.1-0.1-0.1-0.1-0.1
		c0,0-0.1-0.1-0.1-0.1c-0.1,0-0.1,0-0.2,0c-0.1,0-0.1,0-0.2,0c-0.1,0-0.1,0.1-0.1,0.1c0,0-0.1,0.1-0.1,0.1c0,0.1,0,0.1,0,0.2
		c0,0.1,0,0.1,0,0.2c0,0.1,0.1,0.1,0.1,0.1c0,0,0.1,0.1,0.1,0.1C69.4,54.9,69.4,55,69.5,55 M69.5,54.2c0.1,0,0.1,0,0.2,0
		c0,0,0.1,0.1,0.1,0.1c0,0,0,0.1,0,0.1c0,0-0.1,0-0.1,0.1l0.2,0.2h-0.1l-0.2-0.2h-0.1v0.2h-0.1v-0.5H69.5z M69.4,54.3v0.1h0.1
		c0,0,0.1,0,0.1,0c0,0,0,0,0-0.1s0,0,0-0.1c0,0,0,0-0.1,0H69.4z"/>
</g>
</svg>
