<?xml version="1.0" encoding="utf-8"?>
<!-- Generator: Adobe Illustrator 22.1.0, SVG Export Plug-In . SVG Version: 6.00 Build 0)  -->
<svg version="1.1" id="Layer_1" xmlns="http://www.w3.org/2000/svg" xmlns:xlink="http://www.w3.org/1999/xlink" x="0px" y="0px"
	 width="115px" height="26.2px" viewBox="0 0 162 26.2" style="enable-background:new 0 0 162 26.2;" xml:space="preserve">
<style type="text/css">
	.st0{fill-rule:evenodd;clip-rule:evenodd;fill:#FFFFFF;}
</style>
<path class="st0" d="M68.6,0c5.7,0,10.3,4.6,10.3,10.2c0,5.6-4.6,10.2-10.3,10.2c-5.7,0-10.3-4.6-10.3-10.2C58.4,4.6,63,0,68.6,0
	 M68.6,5c2.9,0,5.3,2.4,5.3,5.2c0,2.9-2.4,5.2-5.3,5.2c-2.9,0-5.3-2.4-5.3-5.2C63.4,7.3,65.7,5,68.6,5 M90.2,26.2h7.5v-4.7h-7.5
	C90.2,23.1,90.2,24.7,90.2,26.2L90.2,26.2z M0,7.8V0h5.3v5.6c0.1,1.6,0.3,2,1.9,2.2h3.2V0h5.5l0,7.8l6-7.8h5.9l-7.6,10l8.4,9.2v1.2
	h-5.6l-7-7.7c-0.3,2.4-0.9,4.4-2.6,6.2c-1.4,1.2-2.8,1.3-4.6,1.4H1.1v-4.7h7c2-0.3,2.3-0.7,2.3-3H5.3C1.7,12.7,0,9.7,0,7.8 M28.6,0
	v4.7c2.4,0,4.9,0,7.3,0c3,0,2.7,3-0.1,3c-2.6,0-4.6,0-7.2,0v12.8l5.1,0l0-4.6v-3.2h3.8c7.3-0.6,7.9-11.7,0-12.6
	C34.4,0,31.7,0,28.6,0 M53.7,20.4c1.3,0,3.4,0,4.6,0c0-1.7,0-3,0-4.7c-1.5,0-3.2,0-4.6,0c-5.8,0-6.1-11.1,0-11.1c1.1,0,3.5,0,4.6,0
	c0-1.6,0-3,0-4.6c-1.6,0-3,0-4.6,0C40.3,0,40.2,20.4,53.7,20.4L53.7,20.4z M97.7,20.4c3.1,0,5.8,0,8.9,0c7.9-0.9,7.3-12,0-12.6h-3.8
	V4.6h7.9V0h-13v12.8c2.6,0,4.6,0,7.2,0c2.8,0,3.1,3,0.1,3c-2.4,0-4.9,0-7.3,0V20.4L97.7,20.4z M85.4,20.4c3.5,0,7,0,10.4,0V0h-5.6
	v15.7h-3.5c-1.3,0-1.3-0.5-1.3-1.6V0h-5.9v15.7C79.5,18,81.7,20.4,85.4,20.4L85.4,20.4z M125.1,0l6.5,17.8V0h5.8v7.8h4.8V0h5.6v7.5
	l5.7-7.5h6.3l-7.5,9.8l9.7,10.6h-7.2l-7-7.7v7.7h-5.6v-7.7h-4.8v7.7h-26.1L116,7.8h5.8L118.9,0H125.1 M118.8,15.7h5.8
	C122.7,15.7,120.8,15.7,118.8,15.7 M121.7,7.8l-2.9,7.9h5.8L121.7,7.8"/>
</svg>
