<?xml version="1.0" encoding="UTF-8"?><!DOCTYPE svg PUBLIC "-//W3C//DTD SVG 1.1//EN" "http://www.w3.org/Graphics/SVG/1.1/DTD/svg11.dtd"><svg xmlns="http://www.w3.org/2000/svg" xmlns:xlink="http://www.w3.org/1999/xlink" xmlns:sketch="http://www.bohemiancoding.com/sketch/ns"><symbol id="icon-AlfaBank-white" viewBox="0 0 132 555">
<style type="text/css">
	.st0{fill:#FFFFFF;}
</style>
<g>
	<path class="st0" d="M17.8,0c3.8,0,5,2.7,6,5.4c0.4,1.1,10.2,28,10.5,28.8c0.1,0.2,0,0.6-0.3,0.7c-0.3,0.1-5.4,2.1-5.7,2.2
		c-0.3,0.1-0.6-0.1-0.7-0.3c-0.1-0.3-2.2-6.1-2.5-6.8c-0.7,0-13.8,0-14.5,0c-0.2,0.7-2.4,6.5-2.5,6.8c-0.1,0.3-0.4,0.4-0.7,0.3
		C7.1,37,2,35.1,1.7,34.9c-0.3-0.1-0.4-0.4-0.3-0.7c0.4-1,10-27.4,10.5-28.8C12.8,2.7,14,0,17.8,0z M0.6,48.1
		c-0.3,0-0.6,0.3-0.6,0.6v6.3c0,0.3,0.2,0.6,0.6,0.6h34.5c0.3,0,0.5-0.3,0.5-0.6v-6.3c0-0.3-0.2-0.6-0.5-0.6H0.6 M17.8,8.8
		l-4.9,14.8h9.9L17.8,8.8L17.8,8.8z M146.1,30.4c0,1.7-0.9,2.8-2.6,2.8c-0.7,0-1.2,0-2.1-0.2v-5.1c0.4-0.1,1.2-0.2,2.1-0.2
		C145.2,27.8,146.1,28.6,146.1,30.4z M149.6,30.2c0-3.1-1.8-5.2-5.6-5.2c-0.9,0-1.6,0.1-2.6,0.3l0-4.5c0.6-0.1,1.7-0.2,2.9-0.2
		c1.1,0,2.5,0.1,3.8,0.2l0.1-2.6c-1.4-0.3-3.5-0.5-5.1-0.5c-1.6,0-4,0.4-5.2,0.7l0,16.5c1.8,0.7,3.6,1,5.4,1
		C147.5,35.9,149.6,33.7,149.6,30.2z M110,29.3c0,2.3-0.9,3.8-2.4,3.8c-0.6,0-1,0-1.7-0.3v-6.9c0.8-0.4,1.2-0.4,1.8-0.4
		C109.2,25.5,110,26.8,110,29.3 M98.5,29.4c0-2.5,0.8-3.8,2.3-3.8c0.6,0,1.1,0,1.8,0.4v6.9c-0.7,0.2-1,0.3-1.7,0.3
		C99.2,33.1,98.5,31.7,98.5,29.4 M105.9,39.7v-4.5c0.4,0.2,1.2,0.6,2.6,0.6c2.8,0,4.8-2.3,4.8-6.5c0-4.5-2-6.5-5.4-6.5
		c-0.9,0-1.4,0.1-2.1,0.4v-5.4h-3.3v5.4c-0.7-0.3-1.2-0.4-2.1-0.4c-3.3,0-5.4,2-5.4,6.6c0,4.2,1.8,6.5,4.8,6.5
		c1.4,0,2.2-0.4,2.7-0.6v4.5H105.9 M81,35.6v-12c-1.8-0.5-3.2-0.8-5-0.8c-1.8,0-3.2,0.2-5,0.8v6.2c0,1.7,0,2.2-0.2,2.7
		c-0.2,0.5-0.4,1-1.1,1.5l0.9,1.9c2.6-0.7,3.6-1.9,3.6-5.5v-4.5c0.9-0.1,1-0.2,1.7-0.2c0.7,0,0.8,0,1.7,0.2v9.8H81z M121.5,33
		c-0.7,0.2-1.2,0.3-1.8,0.3c-1.2,0-1.8-0.5-1.8-1.7c0-1.3,0.8-1.7,2.5-1.7c0.4,0,0.8,0.1,1,0.1v0.9C121.3,31.9,121.4,32.5,121.5,33z
		 M125.7,34.4c-0.9-1.3-1.1-2.1-1.1-3.8v-3.4c0-1.8-0.2-2.5-0.7-3.2c-0.7-0.9-1.8-1.3-3.8-1.3c-1.4,0-2.9,0.2-4.2,0.5l0.5,2.4
		c0.9-0.1,1.9-0.2,2.6-0.2c2.2,0,2.4,0.3,2.4,1.9V28c-0.5-0.1-1-0.2-1.7-0.2c-3.3,0-5,1.6-5,4.2c0,2.5,1.8,3.8,4.1,3.8
		c0.8,0,1.7-0.2,2.4-0.4c0.4-0.2,0.6-0.3,1.1-0.6c0.3,0.5,1,1,1.2,1.1L125.7,34.4z M157.7,33c-0.7,0.2-1.2,0.3-1.8,0.3
		c-1.2,0-1.8-0.5-1.8-1.7c0-1.3,0.8-1.7,2.5-1.7c0.4,0,0.8,0.1,1,0.1v0.9C157.6,31.9,157.6,32.5,157.7,33z M161.9,34.4
		c-0.9-1.3-1.1-2.1-1.1-3.8v-3.4c0-1.8-0.2-2.5-0.7-3.2c-0.7-0.9-1.8-1.3-3.8-1.3c-1.4,0-2.9,0.2-4.2,0.5l0.5,2.4
		c0.9-0.1,1.9-0.2,2.6-0.2c2.2,0,2.4,0.3,2.4,1.9V28c-0.5-0.1-1-0.2-1.7-0.2c-3.3,0-5,1.6-5,4.2c0,2.5,1.8,3.8,4.1,3.8
		c0.8,0,1.7-0.2,2.4-0.4c0.4-0.2,0.6-0.3,1.1-0.6c0.3,0.5,1,1,1.3,1.1L161.9,34.4z M90.4,31.3c0,1.2-0.4,2.1-2,2.1
		c-0.5,0-0.7,0-1.4-0.2v-3.6c0.9-0.2,0.9-0.2,1.4-0.2C89.9,29.4,90.4,30.1,90.4,31.3z M83.7,23l0,12c1.6,0.7,3.3,1,4.8,1
		c3.5,0,5.4-1.8,5.4-4.8c0-2.7-1.7-4.4-4.7-4.4c-0.8,0-1.2,0.1-2.1,0.3V23H83.7z M173.9,35.6V23.1h-3.3v4.7h-3.7v-4.7h-3.3v12.5h3.3
		v-5.1h3.7v5.1H173.9z M187.4,35.6c0,0-1.8-3.8-2.2-4.7c-0.5-1-0.9-1.7-2-1.9V29c0.7-0.1,1.2-0.5,1.8-1.8c0.6-1.2,0.7-1.5,1.1-1.8
		c0.3-0.3,0.8-0.2,0.8-0.2l0.2-2.3c-0.5-0.1-1-0.1-1.5,0c-0.9,0.1-1.4,0.3-1.8,0.8c-0.3,0.3-0.6,0.8-0.9,1.4
		c-0.3,0.6-0.6,1.1-0.9,1.8c-0.3,0.7-0.5,1-1.3,1h-0.6v-4.7h-3.3v12.5h3.3v-5.1l0.4,0c0.9,0,1.1,0.2,1.6,1.2
		c0.6,1.2,1.7,3.9,1.7,3.9H187.4z M65,35.6h3.8l-5.7-17.5c-0.6-0.2-1.4-0.3-2.1-0.3c-0.9,0-1.2,0.1-1.9,0.3L53,35.6h3.6
		c0,0,0.5-1.5,1.1-3.4H64C64.5,34.1,65,35.6,65,35.6z M58.6,29.2c0,0,1-3.5,1.2-4c0.4-1.4,1.1-3.7,1.1-3.7H61c0,0,0.6,2.3,1,3.6
		c0.1,0.5,1.1,4.1,1.1,4.1H58.6z M131.3,27.2c-1.2,0-2.1,0.9-2.1,2.1c0,1.2,0.9,2.1,2.1,2.1c1.2,0,2.1-0.9,2.1-2.1
		C133.3,28.2,132.4,27.2,131.3,27.2z"/>
</g>
</symbol><symbol id="icon-AlfaBank" viewBox="0 0 1874 555">
<style type="text/css">
	.st0{fill:#E52713;}
</style>
<g>
	<path class="st0" d="M17.8,0c3.8,0,5,2.7,6,5.4c0.4,1.1,10.2,28,10.5,28.8c0.1,0.2,0,0.6-0.3,0.7c-0.3,0.1-5.4,2.1-5.7,2.2
		c-0.3,0.1-0.6-0.1-0.7-0.3c-0.1-0.3-2.2-6.1-2.5-6.8c-0.7,0-13.8,0-14.5,0c-0.2,0.7-2.4,6.5-2.5,6.8c-0.1,0.3-0.4,0.4-0.7,0.3
		C7.1,37,2,35.1,1.7,34.9c-0.3-0.1-0.4-0.4-0.3-0.7c0.4-1,10-27.4,10.5-28.8C12.8,2.7,14,0,17.8,0z M0.6,48.1
		c-0.3,0-0.6,0.3-0.6,0.6v6.3c0,0.3,0.2,0.6,0.6,0.6h34.5c0.3,0,0.5-0.3,0.5-0.6v-6.3c0-0.3-0.2-0.6-0.5-0.6H0.6 M17.8,8.8
		l-4.9,14.8h9.9L17.8,8.8L17.8,8.8z M146.1,30.4c0,1.7-0.9,2.8-2.6,2.8c-0.7,0-1.2,0-2.1-0.2v-5.1c0.4-0.1,1.2-0.2,2.1-0.2
		C145.2,27.8,146.1,28.6,146.1,30.4z M149.6,30.2c0-3.1-1.8-5.2-5.6-5.2c-0.9,0-1.6,0.1-2.6,0.3l0-4.5c0.6-0.1,1.7-0.2,2.9-0.2
		c1.1,0,2.5,0.1,3.8,0.2l0.1-2.6c-1.4-0.3-3.5-0.5-5.1-0.5c-1.6,0-4,0.4-5.2,0.7l0,16.5c1.8,0.7,3.6,1,5.4,1
		C147.5,35.9,149.6,33.7,149.6,30.2z M110,29.3c0,2.3-0.9,3.8-2.4,3.8c-0.6,0-1,0-1.7-0.3v-6.9c0.8-0.4,1.2-0.4,1.8-0.4
		C109.2,25.5,110,26.8,110,29.3 M98.5,29.4c0-2.5,0.8-3.8,2.3-3.8c0.6,0,1.1,0,1.8,0.4v6.9c-0.7,0.2-1,0.3-1.7,0.3
		C99.2,33.1,98.5,31.7,98.5,29.4 M105.9,39.7v-4.5c0.4,0.2,1.2,0.6,2.6,0.6c2.8,0,4.8-2.3,4.8-6.5c0-4.5-2-6.5-5.4-6.5
		c-0.9,0-1.4,0.1-2.1,0.4v-5.4h-3.3v5.4c-0.7-0.3-1.2-0.4-2.1-0.4c-3.3,0-5.4,2-5.4,6.6c0,4.2,1.8,6.5,4.8,6.5
		c1.4,0,2.2-0.4,2.7-0.6v4.5H105.9 M81,35.6v-12c-1.8-0.5-3.2-0.8-5-0.8c-1.8,0-3.2,0.2-5,0.8v6.2c0,1.7,0,2.2-0.2,2.7
		c-0.2,0.5-0.4,1-1.1,1.5l0.9,1.9c2.6-0.7,3.6-1.9,3.6-5.5v-4.5c0.9-0.1,1-0.2,1.7-0.2c0.7,0,0.8,0,1.7,0.2v9.8H81z M121.5,33
		c-0.7,0.2-1.2,0.3-1.8,0.3c-1.2,0-1.8-0.5-1.8-1.7c0-1.3,0.8-1.7,2.5-1.7c0.4,0,0.8,0.1,1,0.1v0.9C121.3,31.9,121.4,32.5,121.5,33z
		 M125.7,34.4c-0.9-1.3-1.1-2.1-1.1-3.8v-3.4c0-1.8-0.2-2.5-0.7-3.2c-0.7-0.9-1.8-1.3-3.8-1.3c-1.4,0-2.9,0.2-4.2,0.5l0.5,2.4
		c0.9-0.1,1.9-0.2,2.6-0.2c2.2,0,2.4,0.3,2.4,1.9V28c-0.5-0.1-1-0.2-1.7-0.2c-3.3,0-5,1.6-5,4.2c0,2.5,1.8,3.8,4.1,3.8
		c0.8,0,1.7-0.2,2.4-0.4c0.4-0.2,0.6-0.3,1.1-0.6c0.3,0.5,1,1,1.2,1.1L125.7,34.4z M157.7,33c-0.7,0.2-1.2,0.3-1.8,0.3
		c-1.2,0-1.8-0.5-1.8-1.7c0-1.3,0.8-1.7,2.5-1.7c0.4,0,0.8,0.1,1,0.1v0.9C157.6,31.9,157.6,32.5,157.7,33z M161.9,34.4
		c-0.9-1.3-1.1-2.1-1.1-3.8v-3.4c0-1.8-0.2-2.5-0.7-3.2c-0.7-0.9-1.8-1.3-3.8-1.3c-1.4,0-2.9,0.2-4.2,0.5l0.5,2.4
		c0.9-0.1,1.9-0.2,2.6-0.2c2.2,0,2.4,0.3,2.4,1.9V28c-0.5-0.1-1-0.2-1.7-0.2c-3.3,0-5,1.6-5,4.2c0,2.5,1.8,3.8,4.1,3.8
		c0.8,0,1.7-0.2,2.4-0.4c0.4-0.2,0.6-0.3,1.1-0.6c0.3,0.5,1,1,1.3,1.1L161.9,34.4z M90.4,31.3c0,1.2-0.4,2.1-2,2.1
		c-0.5,0-0.7,0-1.4-0.2v-3.6c0.9-0.2,0.9-0.2,1.4-0.2C89.9,29.4,90.4,30.1,90.4,31.3z M83.7,23l0,12c1.6,0.7,3.3,1,4.8,1
		c3.5,0,5.4-1.8,5.4-4.8c0-2.7-1.7-4.4-4.7-4.4c-0.8,0-1.2,0.1-2.1,0.3V23H83.7z M173.9,35.6V23.1h-3.3v4.7h-3.7v-4.7h-3.3v12.5h3.3
		v-5.1h3.7v5.1H173.9z M187.4,35.6c0,0-1.8-3.8-2.2-4.7c-0.5-1-0.9-1.7-2-1.9V29c0.7-0.1,1.2-0.5,1.8-1.8c0.6-1.2,0.7-1.5,1.1-1.8
		c0.3-0.3,0.8-0.2,0.8-0.2l0.2-2.3c-0.5-0.1-1-0.1-1.5,0c-0.9,0.1-1.4,0.3-1.8,0.8c-0.3,0.3-0.6,0.8-0.9,1.4
		c-0.3,0.6-0.6,1.1-0.9,1.8c-0.3,0.7-0.5,1-1.3,1h-0.6v-4.7h-3.3v12.5h3.3v-5.1l0.4,0c0.9,0,1.1,0.2,1.6,1.2
		c0.6,1.2,1.7,3.9,1.7,3.9H187.4z M65,35.6h3.8l-5.7-17.5c-0.6-0.2-1.4-0.3-2.1-0.3c-0.9,0-1.2,0.1-1.9,0.3L53,35.6h3.6
		c0,0,0.5-1.5,1.1-3.4H64C64.5,34.1,65,35.6,65,35.6z M58.6,29.2c0,0,1-3.5,1.2-4c0.4-1.4,1.1-3.7,1.1-3.7H61c0,0,0.6,2.3,1,3.6
		c0.1,0.5,1.1,4.1,1.1,4.1H58.6z M131.3,27.2c-1.2,0-2.1,0.9-2.1,2.1c0,1.2,0.9,2.1,2.1,2.1c1.2,0,2.1-0.9,2.1-2.1
		C133.3,28.2,132.4,27.2,131.3,27.2z"/>
</g>
</symbol><symbol id="icon-circle-js" viewBox="0 0 61 66">
    <g id="Page-1" stroke-width="1" fill-rule="evenodd">
        <g id="circle-js" transform="translate(-5.000000, 0.000000)">
            <g id="Group">
                <g id="Group-2" transform="translate(5.000000, 0.000000)">
                    <path d="M27.6373626,60.1978022 C12.4065934,60.1978022 0.0769230769,47.8681319 0.0769230769,32.6373626 C0.0769230769,17.4065934 12.4065934,5.07692308 27.6373626,5.07692308 C42.8681319,5.07692308 55.1978022,17.4065934 55.1978022,32.6373626 C55.1978022,47.8681319 42.8681319,60.1978022 27.6373626,60.1978022 Z M27.6373626,5.8021978 C13.1318681,5.8021978 0.802197802,18.1318681 0.802197802,32.6373626 C0.802197802,47.1428571 13.1318681,59.4725275 27.6373626,59.4725275 C42.1428571,59.4725275 54.4725275,47.1428571 54.4725275,32.6373626 C54.4725275,18.1318681 42.8681319,5.8021978 27.6373626,5.8021978 Z" id="Shape" fill-rule="nonzero"/>
                    <rect id="Rectangle" x="27.6373626" y="0" width="1" height="5.8021978"/>
                    <rect id="Rectangle" x="27.6373626" y="60.1978022" width="1" height="5.8021978"/>
                    <rect id="Rectangle" x="55.1978022" y="32.6373626" width="5.8021978" height="1"/>
                </g>
            </g>
        </g>
    </g>
</symbol><symbol id="icon-circle-progress" viewBox="0 0 60 60">
<style type="text/css">
	.st0{fill:#53C4EF;}
	.st1{fill:#FFFFFF;}
</style>
<g>
	<g>
		<g>
			<rect x="3.7" y="0.4" class="st0" width="0.1" height="0.7"/>
		</g>
		<g>
			<polygon class="st0" points="3.6,1.1 3.5,0.4 3.6,0.4 3.6,1.1 			"/>
		</g>
		<g>
			<polygon class="st0" points="3.4,1.1 3.3,0.4 3.4,0.4 3.5,1.1 			"/>
		</g>
		<g>
			<polygon class="st0" points="3.2,1.1 3.1,0.5 3.2,0.5 3.3,1.1 			"/>
		</g>
		<g>
			<polygon class="st0" points="3.1,1.2 2.9,0.5 3,0.5 3.1,1.1 			"/>
		</g>
		<g>
			<polygon class="st0" points="2.9,1.2 2.7,0.6 2.8,0.6 3,1.2 			"/>
		</g>
		<g>
			<polygon class="st0" points="2.7,1.3 2.5,0.7 2.6,0.6 2.8,1.2 			"/>
		</g>
		<g>
			<polygon class="st0" points="2.6,1.3 2.3,0.8 2.4,0.7 2.7,1.3 			"/>
		</g>
		<g>
			<polygon class="st0" points="2.4,1.4 2.1,0.9 2.2,0.8 2.5,1.4 			"/>
		</g>
		<g>
			<polygon class="st0" points="2.3,1.5 1.9,1 2,0.9 2.4,1.5 			"/>
		</g>
		<g>
			<polygon class="st0" points="2.1,1.6 1.8,1.1 1.8,1 2.2,1.6 			"/>
		</g>
		<g>
			<rect x="1.8" y="1.1" transform="matrix(0.7709 -0.6369 0.6369 0.7709 -0.4931 1.5021)" class="st0" width="0.1" height="0.7"/>
		</g>
		<g>
			<polygon class="st0" points="1.9,1.8 1.4,1.4 1.5,1.3 2,1.8 			"/>
		</g>
		<g>
			<polygon class="st0" points="1.8,2 1.3,1.5 1.4,1.4 1.8,1.9 			"/>
		</g>
		<g>
			<polygon class="st0" points="1.7,2.1 1.2,1.7 1.2,1.6 1.7,2 			"/>
		</g>
		<g>
			<polygon class="st0" points="1.6,2.2 1,1.8 1.1,1.8 1.6,2.1 			"/>
		</g>
		<g>
			<polygon class="st0" points="1.5,2.4 0.9,2 1,1.9 1.5,2.3 			"/>
		</g>
		<g>
			<polygon class="st0" points="1.4,2.5 0.8,2.2 0.9,2.1 1.4,2.4 			"/>
		</g>
		<g>
			<polygon class="st0" points="1.3,2.7 0.7,2.4 0.8,2.3 1.3,2.6 			"/>
		</g>
		<g>
			<polygon class="st0" points="1.2,2.8 0.6,2.6 0.7,2.5 1.3,2.7 			"/>
		</g>
		<g>
			<rect x="0.8" y="2.5" transform="matrix(0.31 -0.9507 0.9507 0.31 -2.0779 2.8018)" class="st0" width="0.1" height="0.7"/>
		</g>
		<g>
			<rect x="0.8" y="2.7" transform="matrix(0.2473 -0.9689 0.9689 0.2473 -2.2902 3.0832)" class="st0" width="0.1" height="0.7"/>
		</g>
		<g>
			<polygon class="st0" points="1.1,3.3 0.5,3.2 0.5,3.1 1.1,3.2 			"/>
		</g>
		<g>
			<polygon class="st0" points="1.1,3.5 0.4,3.4 0.5,3.3 1.1,3.4 			"/>
		</g>
		<g>
			
				<rect x="0.7" y="3.3" transform="matrix(5.976403e-02 -0.9982 0.9982 5.976403e-02 -2.8674 4.1135)" class="st0" width="0.1" height="0.7"/>
		</g>
		<g>
			<rect x="0.4" y="3.7" class="st0" width="0.7" height="0.1"/>
		</g>
		<g>
			<polygon class="st0" points="0.4,4 0.4,3.9 1.1,3.9 1.1,4 			"/>
		</g>
		<g>
			<polygon class="st0" points="0.5,4.2 0.4,4.1 1.1,4.1 1.1,4.2 			"/>
		</g>
		<g>
			<polygon class="st0" points="0.5,4.4 0.5,4.4 1.1,4.2 1.1,4.3 			"/>
		</g>
		<g>
			<polygon class="st0" points="0.5,4.6 0.5,4.6 1.1,4.4 1.2,4.5 			"/>
		</g>
		<g>
			<rect x="0.6" y="4.7" transform="matrix(0.9503 -0.3112 0.3112 0.9503 -1.4196 0.511)" class="st0" width="0.7" height="0.1"/>
		</g>
		<g>
			<rect x="0.6" y="4.8" transform="matrix(0.9304 -0.3666 0.3666 0.9304 -1.7232 0.6904)" class="st0" width="0.7" height="0.1"/>
		</g>
		<g>
			<polygon class="st0" points="0.8,5.2 0.7,5.2 1.3,4.9 1.3,5 			"/>
		</g>
		<g>
			<polygon class="st0" points="0.9,5.4 0.8,5.3 1.4,5 1.4,5.1 			"/>
		</g>
		<g>
			<polygon class="st0" points="1,5.6 0.9,5.5 1.5,5.2 1.5,5.3 			"/>
		</g>
		<g>
			<polygon class="st0" points="1.1,5.8 1,5.7 1.6,5.3 1.6,5.4 			"/>
		</g>
		<g>
			<polygon class="st0" points="1.2,5.9 1.2,5.9 1.7,5.5 1.7,5.5 			"/>
		</g>
		<g>
			<polygon class="st0" points="1.4,6.1 1.3,6 1.8,5.6 1.8,5.6 			"/>
		</g>
		<g>
			<rect x="1.4" y="5.9" transform="matrix(0.6853 -0.7283 0.7283 0.6853 -3.8167 3.117)" class="st0" width="0.7" height="0.1"/>
		</g>
		<g>
			<polygon class="st0" points="1.7,6.4 1.6,6.3 2,5.8 2.1,5.9 			"/>
		</g>
		<g>
			<polygon class="st0" points="1.8,6.5 1.8,6.5 2.1,5.9 2.2,6 			"/>
		</g>
		<g>
			<polygon class="st0" points="2,6.6 1.9,6.6 2.3,6 2.4,6.1 			"/>
		</g>
		<g>
			<polygon class="st0" points="2.2,6.7 2.1,6.7 2.4,6.1 2.5,6.2 			"/>
		</g>
		<g>
			<polygon class="st0" points="2.4,6.8 2.3,6.8 2.6,6.2 2.7,6.2 			"/>
		</g>
		<g>
			<polygon class="st0" points="2.6,6.9 2.5,6.9 2.7,6.3 2.8,6.3 			"/>
		</g>
		<g>
			<polygon class="st0" points="2.8,7 2.7,6.9 2.9,6.3 3,6.4 			"/>
		</g>
		<g>
			<polygon class="st0" points="3,7 2.9,7 3.1,6.4 3.1,6.4 			"/>
		</g>
		<g>
			<polygon class="st0" points="3.2,7.1 3.1,7.1 3.2,6.4 3.3,6.4 			"/>
		</g>
		<g>
			<polygon class="st0" points="3.4,7.1 3.3,7.1 3.4,6.4 3.5,6.5 			"/>
		</g>
		<g>
			<polygon class="st0" points="3.6,7.1 3.5,7.1 3.6,6.5 3.6,6.5 			"/>
		</g>
		<g>
			<rect x="3.7" y="6.5" class="st0" width="0.1" height="0.7"/>
		</g>
		<g>
			<polygon class="st0" points="3.9,7.1 3.9,6.5 4,6.5 4,7.1 			"/>
		</g>
		<g>
			<polygon class="st0" points="4.1,7.1 4.1,6.5 4.2,6.4 4.2,7.1 			"/>
		</g>
		<g>
			<polygon class="st0" points="4.4,7.1 4.2,6.4 4.3,6.4 4.4,7.1 			"/>
		</g>
		<g>
			<polygon class="st0" points="4.6,7 4.4,6.4 4.5,6.4 4.6,7 			"/>
		</g>
		<g>
			<polygon class="st0" points="4.8,7 4.6,6.4 4.6,6.3 4.8,6.9 			"/>
		</g>
		<g>
			<polygon class="st0" points="5,6.9 4.7,6.3 4.8,6.3 5,6.9 			"/>
		</g>
		<g>
			<polygon class="st0" points="5.2,6.8 4.9,6.2 5,6.2 5.2,6.8 			"/>
		</g>
		<g>
			<polygon class="st0" points="5.3,6.7 5,6.2 5.1,6.1 5.4,6.7 			"/>
		</g>
		<g>
			<polygon class="st0" points="5.5,6.6 5.2,6.1 5.3,6 5.6,6.6 			"/>
		</g>
		<g>
			<polygon class="st0" points="5.7,6.5 5.3,6 5.4,5.9 5.8,6.5 			"/>
		</g>
		<g>
			<polygon class="st0" points="5.9,6.4 5.5,5.9 5.5,5.8 5.9,6.3 			"/>
		</g>
		<g>
			<polygon class="st0" points="6,6.2 5.6,5.8 5.7,5.7 6.1,6.2 			"/>
		</g>
		<g>
			<polygon class="st0" points="6.2,6.1 5.7,5.6 5.8,5.6 6.2,6 			"/>
		</g>
		<g>
			<polygon class="st0" points="6.3,5.9 5.8,5.5 5.9,5.5 6.4,5.9 			"/>
		</g>
		<g>
			<polygon class="st0" points="6.5,5.8 5.9,5.4 6,5.3 6.5,5.7 			"/>
		</g>
		<g>
			<polygon class="st0" points="6.6,5.6 6,5.3 6.1,5.2 6.6,5.5 			"/>
		</g>
		<g>
			<polygon class="st0" points="6.7,5.4 6.1,5.1 6.2,5 6.7,5.3 			"/>
		</g>
		<g>
			<polygon class="st0" points="6.8,5.2 6.2,5 6.2,4.9 6.8,5.2 			"/>
		</g>
		<g>
			<rect x="6.5" y="4.6" transform="matrix(0.3669 -0.9303 0.9303 0.3669 -0.3742 9.2167)" class="st0" width="0.1" height="0.7"/>
		</g>
		<g>
			<polygon class="st0" points="6.9,4.8 6.3,4.6 6.4,4.6 7,4.8 			"/>
		</g>
		<g>
			<rect x="6.7" y="4.2" transform="matrix(0.2501 -0.9682 0.9682 0.2501 0.6477 9.8797)" class="st0" width="0.1" height="0.7"/>
		</g>
		<g>
			<rect x="6.7" y="4" transform="matrix(0.1874 -0.9823 0.9823 0.1874 1.2194 10.1478)" class="st0" width="0.1" height="0.7"/>
		</g>
		<g>
			<rect x="6.7" y="3.8" transform="matrix(0.1272 -0.9919 0.9919 0.1272 1.7967 10.3387)" class="st0" width="0.1" height="0.7"/>
		</g>
		<g>
			
				<rect x="6.7" y="3.6" transform="matrix(6.143168e-02 -0.9981 0.9981 6.143168e-02 2.422 10.4945)" class="st0" width="0.1" height="0.7"/>
		</g>
		<g>
			<rect x="6.5" y="3.7" class="st0" width="0.7" height="0.1"/>
		</g>
		<g>
			<polygon class="st0" points="6.5,3.6 6.5,3.6 7.1,3.5 7.1,3.6 			"/>
		</g>
		<g>
			<polygon class="st0" points="6.5,3.5 6.4,3.4 7.1,3.3 7.1,3.4 			"/>
		</g>
		<g>
			<polygon class="st0" points="6.4,3.3 6.4,3.2 7.1,3.1 7.1,3.2 			"/>
		</g>
		<g>
			<rect x="6.4" y="3" transform="matrix(0.9674 -0.2534 0.2534 0.9674 -0.5455 1.7965)" class="st0" width="0.7" height="0.1"/>
		</g>
		<g>
			<polygon class="st0" points="6.4,3 6.3,2.9 6.9,2.7 7,2.8 			"/>
		</g>
		<g>
			<rect x="6.3" y="2.6" transform="matrix(0.9325 -0.3612 0.3612 0.9325 -0.5145 2.5576)" class="st0" width="0.7" height="0.1"/>
		</g>
		<g>
			<polygon class="st0" points="6.2,2.7 6.2,2.6 6.8,2.3 6.8,2.4 			"/>
		</g>
		<g>
			<rect x="6.1" y="2.3" transform="matrix(0.8709 -0.4915 0.4915 0.8709 -0.3066 3.4549)" class="st0" width="0.7" height="0.1"/>
		</g>
		<g>
			<polygon class="st0" points="6.1,2.4 6,2.3 6.6,1.9 6.6,2 			"/>
		</g>
		<g>
			<polygon class="st0" points="6,2.2 5.9,2.1 6.5,1.8 6.5,1.8 			"/>
		</g>
		<g>
			<polygon class="st0" points="5.9,2.1 5.8,2 6.3,1.6 6.4,1.7 			"/>
		</g>
		<g>
			<polygon class="st0" points="5.8,2 5.7,1.9 6.2,1.4 6.2,1.5 			"/>
		</g>
		<g>
			<polygon class="st0" points="5.7,1.8 5.6,1.8 6,1.3 6.1,1.4 			"/>
		</g>
		<g>
			<polygon class="st0" points="5.5,1.7 5.5,1.7 5.9,1.2 5.9,1.2 			"/>
		</g>
		<g>
			<rect x="5.2" y="1.3" transform="matrix(0.5869 -0.8097 0.8097 0.5869 1.2234 5.0384)" class="st0" width="0.7" height="0.1"/>
		</g>
		<g>
			<polygon class="st0" points="5.3,1.5 5.2,1.5 5.5,0.9 5.6,1 			"/>
		</g>
		<g>
			<polygon class="st0" points="5.1,1.4 5,1.4 5.3,0.8 5.4,0.9 			"/>
		</g>
		<g>
			<polygon class="st0" points="5,1.3 4.9,1.3 5.2,0.7 5.2,0.8 			"/>
		</g>
		<g>
			<polygon class="st0" points="4.8,1.3 4.7,1.2 5,0.6 5,0.7 			"/>
		</g>
		<g>
			<polygon class="st0" points="4.6,1.2 4.6,1.2 4.8,0.6 4.8,0.6 			"/>
		</g>
		<g>
			<polygon class="st0" points="4.5,1.2 4.4,1.1 4.6,0.5 4.6,0.5 			"/>
		</g>
		<g>
			<polygon class="st0" points="4.3,1.1 4.2,1.1 4.4,0.5 4.4,0.5 			"/>
		</g>
		<g>
			<polygon class="st0" points="4.2,1.1 4.1,1.1 4.1,0.4 4.2,0.4 			"/>
		</g>
		<g>
			<polygon class="st0" points="4,1.1 3.9,1.1 3.9,0.4 4,0.4 			"/>
		</g>
	</g>
	<g>
		<g>
			<g>
				<path class="st1" d="M3.8,7.5C1.7,7.5,0,5.8,0,3.8C0,1.7,1.7,0,3.8,0c2.1,0,3.8,1.7,3.8,3.8C7.5,5.8,5.8,7.5,3.8,7.5z M3.8,0.1
					c-2,0-3.7,1.7-3.7,3.7c0,2,1.7,3.7,3.7,3.7c2,0,3.7-1.7,3.7-3.7C7.5,1.7,5.8,0.1,3.8,0.1z"/>
			</g>
		</g>
	</g>
</g>
</symbol><symbol id="icon-facebook" viewBox="0 0 10 19">
    <!-- Generator: Sketch 3.3.3 (12072) - http://www.bohemiancoding.com/sketch -->
    <title>facebook</title>
    <desc>Created with Sketch.</desc>
    
    <g id="Page-1" stroke-width="1" fill-rule="evenodd" sketch:type="MSPage">
        <path d="M9.76616526,0.156928571 L9.76616526,3.10335714 L8.01393311,3.10335714 C7.37405216,3.10335714 6.94250454,3.23728571 6.71929026,3.50514286 C6.49607597,3.773 6.38446883,4.17478571 6.38446883,4.7105 L6.38446883,6.819875 L9.65455811,6.819875 L9.21929026,10.1234464 L6.38446883,10.1234464 L6.38446883,18.5944286 L2.96929026,18.5944286 L2.96929026,10.1234464 L0.123308113,10.1234464 L0.123308113,6.819875 L2.96929026,6.819875 L2.96929026,4.38683929 C2.96929026,3.00291071 3.35619502,1.92962202 4.13000454,1.16697321 C4.90381407,0.404324405 5.93432002,0.023 7.2215224,0.023 C8.3152724,0.023 9.16348668,0.0676428571 9.76616526,0.156928571 L9.76616526,0.156928571 Z" id="facebook" sketch:type="MSShapeGroup"/>
    </g>
</symbol><symbol id="icon-master-card-white" viewBox="0 0 50 551">
<style type="text/css">
	.st0{fill:#FFFFFF;}
	.st1{opacity:0.65;fill:#FFFFFF;}
	.st2{opacity:0.87;fill:#FFFFFF;}
</style>
<g>
	<path class="st0" d="M27,21.9c0-7,3.3-13.2,8.4-17.2C31.7,1.7,27,0,21.9,0C9.8,0,0,9.8,0,21.9s9.8,21.9,21.9,21.9
		c5.1,0,9.8-1.7,13.5-4.7C30.3,35.1,27,28.9,27,21.9"/>
	<path class="st0" d="M68.7,33.5v-0.7H69v-0.1h-0.7v0.1h0.3v0.7H68.7z M70.1,33.5v-0.8h-0.2l-0.3,0.6l-0.3-0.6h-0.2v0.8h0.2v-0.6
		l0.2,0.6h0.2l0.2-0.6v0.6H70.1z"/>
	<path class="st1" d="M35.4,39.1c5.1-4,8.4-10.2,8.4-17.2c0-7-3.3-13.2-8.4-17.2h-9.6v34.4L35.4,39.1C35.4,39.1,35.4,39.1,35.4,39.1
		z"/>
	<path class="st0" d="M12.9,54.8v-3.6c0-1.4-0.9-2.3-2.3-2.3c-0.7,0-1.5,0.2-2,1c-0.4-0.6-1-1-1.9-1c-0.6,0-1.2,0.2-1.7,0.9V49H3.7
		v5.8h1.3v-3.2c0-1,0.6-1.5,1.4-1.5c0.8,0,1.3,0.5,1.3,1.5v3.2h1.3v-3.2c0-1,0.6-1.5,1.4-1.5c0.9,0,1.3,0.5,1.3,1.5v3.2H12.9z
		 M31.8,49h-2.1v-1.8h-1.3V49h-1.2v1.2h1.2v2.7c0,1.3,0.5,2.2,2,2.2c0.5,0,1.2-0.2,1.6-0.4l-0.4-1.1c-0.4,0.2-0.8,0.3-1.1,0.3
		c-0.6,0-0.8-0.4-0.8-1v-2.6h2.1V49z M42.5,48.8c-0.7,0-1.2,0.3-1.5,0.9V49h-1.3v5.8H41v-3.3c0-1,0.4-1.5,1.2-1.5
		c0.3,0,0.5,0,0.8,0.1l0.4-1.2C43.2,48.9,42.8,48.8,42.5,48.8 M26.2,49.4c-0.6-0.4-1.4-0.6-2.4-0.6c-1.5,0-2.4,0.7-2.4,1.9
		c0,0.9,0.7,1.5,2,1.7l0.6,0.1c0.7,0.1,1,0.3,1,0.6c0,0.5-0.5,0.7-1.3,0.7c-0.9,0-1.5-0.3-1.9-0.6l-0.6,1c0.7,0.5,1.6,0.8,2.5,0.8
		c1.7,0,2.7-0.8,2.7-1.9c0-1-0.8-1.6-2-1.7l-0.6-0.1c-0.5-0.1-1-0.2-1-0.6c0-0.4,0.4-0.7,1.1-0.7c0.7,0,1.5,0.3,1.8,0.5L26.2,49.4z
		 M60.1,48.8c-0.7,0-1.2,0.3-1.5,0.9V49h-1.3v5.8h1.3v-3.3c0-1,0.4-1.5,1.2-1.5c0.3,0,0.5,0,0.8,0.1L61,49
		C60.7,48.9,60.4,48.8,60.1,48.8 M43.8,51.9c0,1.8,1.2,3.1,3.1,3.1c0.9,0,1.5-0.2,2.1-0.7l-0.6-1c-0.5,0.3-1,0.5-1.5,0.5
		c-1,0-1.7-0.7-1.7-1.9c0-1.1,0.7-1.8,1.7-1.9c0.5,0,1,0.2,1.5,0.5l0.6-1c-0.6-0.5-1.2-0.7-2.1-0.7C45.1,48.8,43.8,50.1,43.8,51.9
		 M55.7,51.9V49h-1.3v0.7c-0.4-0.5-1-0.9-1.8-0.9c-1.6,0-2.9,1.3-2.9,3.1s1.3,3.1,2.9,3.1c0.8,0,1.4-0.3,1.8-0.9v0.7h1.3V51.9z
		 M51,51.9c0-1,0.7-1.9,1.8-1.9c1,0,1.8,0.8,1.8,1.9c0,1.1-0.7,1.9-1.8,1.9C51.6,53.7,51,52.9,51,51.9 M35.7,48.8
		c-1.7,0-2.9,1.2-2.9,3.1c0,1.8,1.2,3.1,3,3.1c0.9,0,1.7-0.2,2.4-0.8l-0.6-0.9c-0.5,0.4-1.1,0.6-1.7,0.6c-0.8,0-1.6-0.4-1.7-1.4h4.3
		c0-0.2,0-0.3,0-0.5C38.5,50.1,37.3,48.8,35.7,48.8 M35.7,49.9c0.8,0,1.3,0.5,1.5,1.4h-3C34.3,50.5,34.8,49.9,35.7,49.9 M67.4,51.9
		v-5.2h-1.3v3c-0.4-0.5-1-0.9-1.8-0.9c-1.6,0-2.9,1.3-2.9,3.1s1.3,3.1,2.9,3.1c0.8,0,1.4-0.3,1.8-0.9v0.7h1.3V51.9z M62.7,51.9
		c0-1,0.7-1.9,1.8-1.9c1,0,1.8,0.8,1.8,1.9c0,1.1-0.7,1.9-1.8,1.9C63.4,53.7,62.7,52.9,62.7,51.9 M20,51.9V49h-1.3v0.7
		c-0.4-0.5-1-0.9-1.8-0.9c-1.6,0-2.9,1.3-2.9,3.1s1.3,3.1,2.9,3.1c0.8,0,1.4-0.3,1.8-0.9v0.7H20V51.9z M15.3,51.9
		c0-1,0.7-1.9,1.8-1.9c1,0,1.7,0.8,1.7,1.9c0,1.1-0.7,1.9-1.7,1.9C16,53.7,15.3,52.9,15.3,51.9 M69.5,53.9c0.1,0,0.2,0,0.2,0
		c0.1,0,0.1,0.1,0.2,0.1c0.1,0.1,0.1,0.1,0.1,0.2c0,0.1,0,0.1,0,0.2c0,0.1,0,0.2,0,0.2c0,0.1-0.1,0.1-0.1,0.2
		C69.9,55,69.8,55,69.7,55c-0.1,0-0.1,0-0.2,0c-0.1,0-0.2,0-0.2,0c-0.1,0-0.1-0.1-0.2-0.1C69,54.9,69,54.8,69,54.7
		c0-0.1,0-0.1,0-0.2c0-0.1,0-0.2,0-0.2c0-0.1,0.1-0.1,0.1-0.2c0.1-0.1,0.1-0.1,0.2-0.1C69.3,53.9,69.4,53.9,69.5,53.9 M69.5,55
		c0.1,0,0.1,0,0.2,0c0.1,0,0.1-0.1,0.1-0.1c0,0,0.1-0.1,0.1-0.1c0-0.1,0-0.1,0-0.2c0-0.1,0-0.1,0-0.2c0-0.1-0.1-0.1-0.1-0.1
		c0,0-0.1-0.1-0.1-0.1c-0.1,0-0.1,0-0.2,0c-0.1,0-0.1,0-0.2,0c-0.1,0-0.1,0.1-0.1,0.1c0,0-0.1,0.1-0.1,0.1c0,0.1,0,0.1,0,0.2
		c0,0.1,0,0.1,0,0.2c0,0.1,0.1,0.1,0.1,0.1c0,0,0.1,0.1,0.1,0.1C69.4,54.9,69.4,55,69.5,55 M69.5,54.2c0.1,0,0.1,0,0.2,0
		c0,0,0.1,0.1,0.1,0.1c0,0,0,0.1,0,0.1c0,0-0.1,0-0.1,0.1l0.2,0.2h-0.1l-0.2-0.2h-0.1v0.2h-0.1v-0.5H69.5z M69.4,54.3v0.1h0.1
		c0,0,0.1,0,0.1,0c0,0,0,0,0-0.1s0,0,0-0.1c0,0,0,0-0.1,0H69.4z"/>
	<path class="st2" d="M70.8,21.9c0,12.1-9.8,21.9-21.9,21.9c-5.1,0-9.8-1.7-13.5-4.7c5.1-4,8.4-10.2,8.4-17.2S40.5,8.7,35.4,4.7
		C39.1,1.7,43.8,0,48.9,0C61,0,70.8,9.8,70.8,21.9"/>
</g>
</symbol><symbol id="icon-master-card" viewBox="0 0 708 551">
<style type="text/css">
	.st0{fill:#E85E14;}
	.st1{fill:#DF1612;}
	.st2{fill:#F59E00;}
	.st3{fill:#0A0A0A;}
</style>
<g>
	<rect x="25.8" y="4.7" class="st0" width="19.1" height="34.4"/>
	<path class="st1" d="M27,21.9c0-7,3.3-13.2,8.4-17.2C31.7,1.7,27,0,21.9,0C9.8,0,0,9.8,0,21.9s9.8,21.9,21.9,21.9
		c5.1,0,9.8-1.7,13.5-4.7C30.3,35.1,27,28.9,27,21.9"/>
	<path class="st0" d="M68.7,33.5v-0.7H69v-0.1h-0.7v0.1h0.3v0.7H68.7z M70.1,33.5v-0.8h-0.2l-0.3,0.6l-0.3-0.6h-0.2v0.8h0.2v-0.6
		l0.2,0.6h0.2l0.2-0.6v0.6H70.1z"/>
	<path class="st2" d="M70.8,21.9c0,12.1-9.8,21.9-21.9,21.9c-5.1,0-9.8-1.7-13.5-4.7c5.1-4,8.4-10.2,8.4-17.2S40.5,8.7,35.4,4.7
		C39.1,1.7,43.8,0,48.9,0C61,0,70.8,9.8,70.8,21.9"/>
	<path class="st3" d="M12.9,54.8v-3.6c0-1.4-0.9-2.3-2.3-2.3c-0.7,0-1.5,0.2-2,1c-0.4-0.6-1-1-1.9-1c-0.6,0-1.2,0.2-1.7,0.9V49H3.7
		v5.8h1.3v-3.2c0-1,0.6-1.5,1.4-1.5c0.8,0,1.3,0.5,1.3,1.5v3.2h1.3v-3.2c0-1,0.6-1.5,1.4-1.5c0.9,0,1.3,0.5,1.3,1.5v3.2H12.9z
		 M31.8,49h-2.1v-1.8h-1.3V49h-1.2v1.2h1.2v2.7c0,1.3,0.5,2.2,2,2.2c0.5,0,1.2-0.2,1.6-0.4l-0.4-1.1c-0.4,0.2-0.8,0.3-1.1,0.3
		c-0.6,0-0.8-0.4-0.8-1v-2.6h2.1V49z M42.5,48.8c-0.7,0-1.2,0.3-1.5,0.9V49h-1.3v5.8H41v-3.3c0-1,0.4-1.5,1.2-1.5
		c0.3,0,0.5,0,0.8,0.1l0.4-1.2C43.2,48.9,42.8,48.8,42.5,48.8 M26.2,49.4c-0.6-0.4-1.4-0.6-2.4-0.6c-1.5,0-2.4,0.7-2.4,1.9
		c0,0.9,0.7,1.5,2,1.7l0.6,0.1c0.7,0.1,1,0.3,1,0.6c0,0.5-0.5,0.7-1.3,0.7c-0.9,0-1.5-0.3-1.9-0.6l-0.6,1c0.7,0.5,1.6,0.8,2.5,0.8
		c1.7,0,2.7-0.8,2.7-1.9c0-1-0.8-1.6-2-1.7l-0.6-0.1c-0.5-0.1-1-0.2-1-0.6c0-0.4,0.4-0.7,1.1-0.7c0.7,0,1.5,0.3,1.8,0.5L26.2,49.4z
		 M60.1,48.8c-0.7,0-1.2,0.3-1.5,0.9V49h-1.3v5.8h1.3v-3.3c0-1,0.4-1.5,1.2-1.5c0.3,0,0.5,0,0.8,0.1L61,49
		C60.7,48.9,60.4,48.8,60.1,48.8 M43.8,51.9c0,1.8,1.2,3.1,3.1,3.1c0.9,0,1.5-0.2,2.1-0.7l-0.6-1c-0.5,0.3-1,0.5-1.5,0.5
		c-1,0-1.7-0.7-1.7-1.9c0-1.1,0.7-1.8,1.7-1.9c0.5,0,1,0.2,1.5,0.5l0.6-1c-0.6-0.5-1.2-0.7-2.1-0.7C45.1,48.8,43.8,50.1,43.8,51.9
		 M55.7,51.9V49h-1.3v0.7c-0.4-0.5-1-0.9-1.8-0.9c-1.6,0-2.9,1.3-2.9,3.1s1.3,3.1,2.9,3.1c0.8,0,1.4-0.3,1.8-0.9v0.7h1.3V51.9z
		 M51,51.9c0-1,0.7-1.9,1.8-1.9c1,0,1.8,0.8,1.8,1.9c0,1.1-0.7,1.9-1.8,1.9C51.6,53.7,51,52.9,51,51.9 M35.7,48.8
		c-1.7,0-2.9,1.2-2.9,3.1c0,1.8,1.2,3.1,3,3.1c0.9,0,1.7-0.2,2.4-0.8l-0.6-0.9c-0.5,0.4-1.1,0.6-1.7,0.6c-0.8,0-1.6-0.4-1.7-1.4h4.3
		c0-0.2,0-0.3,0-0.5C38.5,50.1,37.3,48.8,35.7,48.8 M35.7,49.9c0.8,0,1.3,0.5,1.5,1.4h-3C34.3,50.5,34.8,49.9,35.7,49.9 M67.4,51.9
		v-5.2h-1.3v3c-0.4-0.5-1-0.9-1.8-0.9c-1.6,0-2.9,1.3-2.9,3.1s1.3,3.1,2.9,3.1c0.8,0,1.4-0.3,1.8-0.9v0.7h1.3V51.9z M62.7,51.9
		c0-1,0.7-1.9,1.8-1.9c1,0,1.8,0.8,1.8,1.9c0,1.1-0.7,1.9-1.8,1.9C63.4,53.7,62.7,52.9,62.7,51.9 M20,51.9V49h-1.3v0.7
		c-0.4-0.5-1-0.9-1.8-0.9c-1.6,0-2.9,1.3-2.9,3.1s1.3,3.1,2.9,3.1c0.8,0,1.4-0.3,1.8-0.9v0.7H20V51.9z M15.3,51.9
		c0-1,0.7-1.9,1.8-1.9c1,0,1.7,0.8,1.7,1.9c0,1.1-0.7,1.9-1.7,1.9C16,53.7,15.3,52.9,15.3,51.9 M69.5,53.9c0.1,0,0.2,0,0.2,0
		c0.1,0,0.1,0.1,0.2,0.1c0.1,0.1,0.1,0.1,0.1,0.2c0,0.1,0,0.1,0,0.2c0,0.1,0,0.2,0,0.2c0,0.1-0.1,0.1-0.1,0.2
		C69.9,55,69.8,55,69.7,55c-0.1,0-0.1,0-0.2,0c-0.1,0-0.2,0-0.2,0c-0.1,0-0.1-0.1-0.2-0.1C69,54.9,69,54.8,69,54.7
		c0-0.1,0-0.1,0-0.2c0-0.1,0-0.2,0-0.2c0-0.1,0.1-0.1,0.1-0.2c0.1-0.1,0.1-0.1,0.2-0.1C69.3,53.9,69.4,53.9,69.5,53.9 M69.5,55
		c0.1,0,0.1,0,0.2,0c0.1,0,0.1-0.1,0.1-0.1c0,0,0.1-0.1,0.1-0.1c0-0.1,0-0.1,0-0.2c0-0.1,0-0.1,0-0.2c0-0.1-0.1-0.1-0.1-0.1
		c0,0-0.1-0.1-0.1-0.1c-0.1,0-0.1,0-0.2,0c-0.1,0-0.1,0-0.2,0c-0.1,0-0.1,0.1-0.1,0.1c0,0-0.1,0.1-0.1,0.1c0,0.1,0,0.1,0,0.2
		c0,0.1,0,0.1,0,0.2c0,0.1,0.1,0.1,0.1,0.1c0,0,0.1,0.1,0.1,0.1C69.4,54.9,69.4,55,69.5,55 M69.5,54.2c0.1,0,0.1,0,0.2,0
		c0,0,0.1,0.1,0.1,0.1c0,0,0,0.1,0,0.1c0,0-0.1,0-0.1,0.1l0.2,0.2h-0.1l-0.2-0.2h-0.1v0.2h-0.1v-0.5H69.5z M69.4,54.3v0.1h0.1
		c0,0,0.1,0,0.1,0c0,0,0,0,0-0.1s0,0,0-0.1c0,0,0,0-0.1,0H69.4z"/>
</g>
</symbol><symbol id="icon-ukrsocbank-white" viewBox="0 0 115 262">
<style type="text/css">
	.st0{fill-rule:evenodd;clip-rule:evenodd;fill:#FFFFFF;}
</style>
<path class="st0" d="M68.6,0c5.7,0,10.3,4.6,10.3,10.2c0,5.6-4.6,10.2-10.3,10.2c-5.7,0-10.3-4.6-10.3-10.2C58.4,4.6,63,0,68.6,0
	 M68.6,5c2.9,0,5.3,2.4,5.3,5.2c0,2.9-2.4,5.2-5.3,5.2c-2.9,0-5.3-2.4-5.3-5.2C63.4,7.3,65.7,5,68.6,5 M90.2,26.2h7.5v-4.7h-7.5
	C90.2,23.1,90.2,24.7,90.2,26.2L90.2,26.2z M0,7.8V0h5.3v5.6c0.1,1.6,0.3,2,1.9,2.2h3.2V0h5.5l0,7.8l6-7.8h5.9l-7.6,10l8.4,9.2v1.2
	h-5.6l-7-7.7c-0.3,2.4-0.9,4.4-2.6,6.2c-1.4,1.2-2.8,1.3-4.6,1.4H1.1v-4.7h7c2-0.3,2.3-0.7,2.3-3H5.3C1.7,12.7,0,9.7,0,7.8 M28.6,0
	v4.7c2.4,0,4.9,0,7.3,0c3,0,2.7,3-0.1,3c-2.6,0-4.6,0-7.2,0v12.8l5.1,0l0-4.6v-3.2h3.8c7.3-0.6,7.9-11.7,0-12.6
	C34.4,0,31.7,0,28.6,0 M53.7,20.4c1.3,0,3.4,0,4.6,0c0-1.7,0-3,0-4.7c-1.5,0-3.2,0-4.6,0c-5.8,0-6.1-11.1,0-11.1c1.1,0,3.5,0,4.6,0
	c0-1.6,0-3,0-4.6c-1.6,0-3,0-4.6,0C40.3,0,40.2,20.4,53.7,20.4L53.7,20.4z M97.7,20.4c3.1,0,5.8,0,8.9,0c7.9-0.9,7.3-12,0-12.6h-3.8
	V4.6h7.9V0h-13v12.8c2.6,0,4.6,0,7.2,0c2.8,0,3.1,3,0.1,3c-2.4,0-4.9,0-7.3,0V20.4L97.7,20.4z M85.4,20.4c3.5,0,7,0,10.4,0V0h-5.6
	v15.7h-3.5c-1.3,0-1.3-0.5-1.3-1.6V0h-5.9v15.7C79.5,18,81.7,20.4,85.4,20.4L85.4,20.4z M125.1,0l6.5,17.8V0h5.8v7.8h4.8V0h5.6v7.5
	l5.7-7.5h6.3l-7.5,9.8l9.7,10.6h-7.2l-7-7.7v7.7h-5.6v-7.7h-4.8v7.7h-26.1L116,7.8h5.8L118.9,0H125.1 M118.8,15.7h5.8
	C122.7,15.7,120.8,15.7,118.8,15.7 M121.7,7.8l-2.9,7.9h5.8L121.7,7.8"/>
</symbol><symbol id="icon-ukrsocbank" viewBox="0 0 162 262">
<style type="text/css">
	.st0{fill-rule:evenodd;clip-rule:evenodd;fill:#A90A2E;}
</style>
<path class="st0" d="M68.6,0c5.7,0,10.3,4.6,10.3,10.2c0,5.6-4.6,10.2-10.3,10.2c-5.7,0-10.3-4.6-10.3-10.2C58.4,4.6,63,0,68.6,0
	 M68.6,5c2.9,0,5.3,2.4,5.3,5.2c0,2.9-2.4,5.2-5.3,5.2c-2.9,0-5.3-2.4-5.3-5.2C63.4,7.3,65.7,5,68.6,5 M90.2,26.2h7.5v-4.7h-7.5
	C90.2,23.1,90.2,24.7,90.2,26.2L90.2,26.2z M0,7.8V0h5.3v5.6c0.1,1.6,0.3,2,1.9,2.2h3.2V0h5.5l0,7.8l6-7.8h5.9l-7.6,10l8.4,9.2v1.2
	h-5.6l-7-7.7c-0.3,2.4-0.9,4.4-2.6,6.2c-1.4,1.2-2.8,1.3-4.6,1.4H1.1v-4.7h7c2-0.3,2.3-0.7,2.3-3H5.3C1.7,12.7,0,9.7,0,7.8 M28.6,0
	v4.7c2.4,0,4.9,0,7.3,0c3,0,2.7,3-0.1,3c-2.6,0-4.6,0-7.2,0v12.8l5.1,0l0-4.6v-3.2h3.8c7.3-0.6,7.9-11.7,0-12.6
	C34.4,0,31.7,0,28.6,0 M53.7,20.4c1.3,0,3.4,0,4.6,0c0-1.7,0-3,0-4.7c-1.5,0-3.2,0-4.6,0c-5.8,0-6.1-11.1,0-11.1c1.1,0,3.5,0,4.6,0
	c0-1.6,0-3,0-4.6c-1.6,0-3,0-4.6,0C40.3,0,40.2,20.4,53.7,20.4L53.7,20.4z M97.7,20.4c3.1,0,5.8,0,8.9,0c7.9-0.9,7.3-12,0-12.6h-3.8
	V4.6h7.9V0h-13v12.8c2.6,0,4.6,0,7.2,0c2.8,0,3.1,3,0.1,3c-2.4,0-4.9,0-7.3,0V20.4L97.7,20.4z M85.4,20.4c3.5,0,7,0,10.4,0V0h-5.6
	v15.7h-3.5c-1.3,0-1.3-0.5-1.3-1.6V0h-5.9v15.7C79.5,18,81.7,20.4,85.4,20.4L85.4,20.4z M125.1,0l6.5,17.8V0h5.8v7.8h4.8V0h5.6v7.5
	l5.7-7.5h6.3l-7.5,9.8l9.7,10.6h-7.2l-7-7.7v7.7h-5.6v-7.7h-4.8v7.7h-26.1L116,7.8h5.8L118.9,0H125.1 M118.8,15.7h5.8
	C122.7,15.7,120.8,15.7,118.8,15.7 M121.7,7.8l-2.9,7.9h5.8L121.7,7.8"/>
</symbol><symbol id="icon-year" viewBox="0 0 5353 2681">
<style type="text/css">
	.st0{fill:#818F97;}
	.st1{font-family:'Montserrat-Medium';}
	.st2{font-size:240.9224px;}
</style>
<g>
	<text transform="matrix(1 0 0 1 2.441406e-04 204.7819)" class="st0 st1 st2">2019</text>
</g>
</symbol></svg>